<?xml version="1.0" encoding="UTF-8"?>
<svg xmlns="http://www.w3.org/2000/svg" xmlns:xlink="http://www.w3.org/1999/xlink" width="48pt" height="48pt" viewBox="0 0 48 48" version="1.1">
<g id="surface1">
<path style=" stroke:none;fill-rule:nonzero;fill:rgb(40%,40%,100%);fill-opacity:1;" d="M 37.871094 3.027344 L 30.234375 3.027344 L 30.234375 6.121094 L 36.425781 6.121094 C 37.28125 6.121094 37.972656 6.816406 37.972656 7.667969 L 37.972656 43.355469 C 37.972656 44.210938 37.28125 44.902344 36.425781 44.902344 L 11.566406 44.902344 C 10.714844 44.902344 10.027344 44.210938 10.027344 43.355469 L 10.027344 7.667969 C 10.027344 6.816406 10.714844 6.121094 11.566406 6.121094 L 17.851562 6.121094 L 17.851562 3.027344 L 10.027344 3.027344 C 8.3125 3.027344 6.929688 4.414062 6.929688 6.121094 L 6.929688 44.90625 C 6.929688 46.617188 8.3125 48 10.027344 48 L 37.871094 48 C 39.585938 48 41.070312 46.617188 41.070312 44.90625 L 41.070312 6.121094 C 41.070312 4.414062 39.585938 3.027344 37.871094 3.027344 Z M 37.871094 3.027344 "/>
<path style=" stroke:none;fill-rule:nonzero;fill:rgb(40%,40%,100%);fill-opacity:1;" d="M 16.765625 7.890625 C 16.105469 7.890625 15.566406 8.253906 15.566406 8.714844 C 15.566406 9.167969 15.566406 10.355469 15.566406 10.355469 L 32.429688 10.355469 C 32.429688 10.355469 32.429688 9.167969 32.429688 8.714844 C 32.429688 8.257812 31.886719 7.890625 31.226562 7.890625 L 27.628906 7.890625 L 27.628906 1.175781 C 23.9375 -1.445312 20.347656 1.128906 20.347656 1.128906 L 20.359375 7.890625 Z M 16.765625 7.890625 "/>
<path style=" stroke:none;fill-rule:nonzero;fill:rgb(40%,40%,100%);fill-opacity:1;" d="M 13.851562 17.816406 L 34.148438 17.816406 L 34.148438 21.722656 L 13.851562 21.722656 Z M 13.851562 17.816406 "/>
<path style=" stroke:none;fill-rule:nonzero;fill:rgb(40%,40%,100%);fill-opacity:1;" d="M 13.851562 26.722656 L 34.148438 26.722656 L 34.148438 30.625 L 13.851562 30.625 Z M 13.851562 26.722656 "/>
<path style=" stroke:none;fill-rule:nonzero;fill:rgb(40%,40%,100%);fill-opacity:1;" d="M 13.851562 35.984375 L 34.148438 35.984375 L 34.148438 39.890625 L 13.851562 39.890625 Z M 13.851562 35.984375 "/>
</g>
</svg>
