<?xml version="1.0" encoding="UTF-8"?>
<svg xmlns="http://www.w3.org/2000/svg" xmlns:xlink="http://www.w3.org/1999/xlink" width="64pt" height="64pt" viewBox="0 0 64 64" version="1.1">
<g id="surface1">
<path style=" stroke:none;fill-rule:nonzero;fill:rgb(100%,100%,100%);fill-opacity:1;" d="M 50.496094 4.039062 L 40.3125 4.039062 L 40.3125 8.164062 L 48.566406 8.164062 C 49.707031 8.164062 50.628906 9.085938 50.628906 10.222656 L 50.628906 57.808594 C 50.628906 58.949219 49.707031 59.871094 48.566406 59.871094 L 15.421875 59.871094 C 14.285156 59.871094 13.367188 58.949219 13.367188 57.808594 L 13.367188 10.222656 C 13.367188 9.085938 14.285156 8.164062 15.421875 8.164062 L 23.800781 8.164062 L 23.800781 4.039062 L 13.367188 4.039062 C 11.082031 4.039062 9.238281 5.886719 9.238281 8.164062 L 9.238281 59.875 C 9.238281 62.15625 11.082031 64 13.367188 64 L 50.496094 64 C 52.78125 64 54.761719 62.15625 54.761719 59.875 L 54.761719 8.164062 C 54.761719 5.886719 52.78125 4.039062 50.496094 4.039062 Z M 50.496094 4.039062 "/>
<path style=" stroke:none;fill-rule:nonzero;fill:rgb(100%,100%,100%);fill-opacity:1;" d="M 22.355469 10.519531 C 21.472656 10.519531 20.757812 11.007812 20.757812 11.617188 C 20.757812 12.226562 20.757812 13.804688 20.757812 13.804688 L 43.238281 13.804688 C 43.238281 13.804688 43.238281 12.226562 43.238281 11.617188 C 43.238281 11.011719 42.515625 10.519531 41.636719 10.519531 L 36.839844 10.519531 L 36.839844 1.570312 C 31.917969 -1.925781 27.132812 1.507812 27.132812 1.507812 L 27.144531 10.519531 Z M 22.355469 10.519531 "/>
<path style=" stroke:none;fill-rule:nonzero;fill:rgb(100%,100%,100%);fill-opacity:1;" d="M 18.46875 23.757812 L 45.53125 23.757812 L 45.53125 28.964844 L 18.46875 28.964844 Z M 18.46875 23.757812 "/>
<path style=" stroke:none;fill-rule:nonzero;fill:rgb(100%,100%,100%);fill-opacity:1;" d="M 18.46875 35.628906 L 45.53125 35.628906 L 45.53125 40.832031 L 18.46875 40.832031 Z M 18.46875 35.628906 "/>
<path style=" stroke:none;fill-rule:nonzero;fill:rgb(100%,100%,100%);fill-opacity:1;" d="M 18.46875 47.980469 L 45.53125 47.980469 L 45.53125 53.1875 L 18.46875 53.1875 Z M 18.46875 47.980469 "/>
</g>
</svg>
